<?xml version="1.0" encoding="UTF-8" standalone="no"?>
<svg
   xmlns:dc="http://purl.org/dc/elements/1.1/"
   xmlns:cc="http://creativecommons.org/ns#"
   xmlns:rdf="http://www.w3.org/1999/02/22-rdf-syntax-ns#"
   xmlns:svg="http://www.w3.org/2000/svg"
   xmlns="http://www.w3.org/2000/svg"
   xmlns:sodipodi="http://sodipodi.sourceforge.net/DTD/sodipodi-0.dtd"
   xmlns:inkscape="http://www.inkscape.org/namespaces/inkscape"
   version="1.1"
   id="svg224"
   width="1828.5714"
   height="1371.4286"
   viewBox="0 0 1828.5714 1371.4286"
   sodipodi:docname="avataaars.svg"
   inkscape:version="1.0.1 (3bc2e813f5, 2020-09-07)">
  <metadata
     id="metadata230">
    <rdf:RDF>
      <cc:Work
         rdf:about="">
        <dc:format>image/svg+xml</dc:format>
        <dc:type
           rdf:resource="http://purl.org/dc/dcmitype/StillImage" />
        <dc:title></dc:title>
      </cc:Work>
    </rdf:RDF>
  </metadata>
  <defs
     id="defs228" />
  <sodipodi:namedview
     pagecolor="#ffffff"
     bordercolor="#666666"
     borderopacity="1"
     objecttolerance="10"
     gridtolerance="10"
     guidetolerance="10"
     inkscape:pageopacity="0"
     inkscape:pageshadow="2"
     inkscape:window-width="1280"
     inkscape:window-height="668"
     id="namedview226"
     showgrid="false"
     inkscape:zoom="0.36458333"
     inkscape:cx="914.28571"
     inkscape:cy="685.71429"
     inkscape:window-x="-4"
     inkscape:window-y="-4"
     inkscape:window-maximized="1"
     inkscape:current-layer="g232" />
  <g
     inkscape:groupmode="layer"
     inkscape:label="Image"
     id="g232">
    <path
       style="fill:#000000;stroke-width:2.53968"
       d="m 200.50439,1171.8483 c -0.93389,-0.9339 -1.698,-12.7263 -1.698,-26.2054 v -24.5073 l 19.4147,-13.7996 c 10.6781,-7.5897 23.81369,-16.9098 29.19022,-20.7113 47.2299,-33.394 82.50692,-59.1884 84.05461,-61.4603 1.12063,-1.645 1.89694,-1.7247 1.94364,-0.1994 0.0462,1.51 0.83431,1.4217 1.94365,-0.2176 1.62031,-2.3945 21.37691,-17.1766 38.74387,-28.9887 6.39766,-4.3514 23.35941,-17.4674 23.78871,-18.3952 0.1572,-0.3396 203.4946,-1.1968 451.8609,-1.9048 L 1301.322,974.1714 1285.0448,963.47 c -8.9525,-5.8858 -21.5899,-15.939 -28.0832,-22.3405 -9.4758,-9.3417 -11.806,-13.3525 -11.806,-20.3203 0,-17.45 13.2127,-19.5661 133.3333,-21.354 l 99.0476,-1.4743 -19.0476,-4.3515 c -65.5303,-14.9705 -118.9139,-20.8719 -189.2064,-20.9161 -87.2988,-0.055 -167.4758,13.9234 -235.5555,41.0675 l -22.2222,8.8602 v 14.9716 14.9715 H 815.31429 619.12389 v -26.6648 -26.6648 l 87.8306,-0.01 c 48.3069,0 88.3069,-0.4766 88.8889,-1.0543 0.582,-0.5776 0.4868,-21.1685 -0.2116,-45.7574 l -1.2698,-44.7071 -323.1746,0.062 -323.17465,0.063 V 429.42851 50.996837 h 680.64325 680.64321 l -0.6433,377.777783 -0.6432,377.77778 -330.1587,0.6047 -330.15871,0.6046 -0.6923,45.7445 -0.6922,45.7446 h 82.3734 82.37331 l -0.7037,6.411 c -0.9904,9.0219 1.5165,9.588 15.5247,3.5057 26.0901,-11.3284 80.7377,-26.8617 115.1501,-32.7308 9.0793,-1.5485 22.7936,-4.0825 30.4762,-5.6311 7.8135,-1.5749 48.0991,-3.1407 91.4285,-3.5536 70.6858,-0.6735 81.2364,-0.2014 120.635,5.3973 40.6167,5.7718 51.233,7.876 97.2119,19.2682 21.0801,5.223 23.423,6.3256 23.423,11.0232 0,2.7625 -21.5127,3.5836 -116.1905,4.4349 -99.1578,0.8915 -117.5412,1.6376 -125.4042,5.0897 -5.0676,2.2247 -10.0555,5.4069 -11.0843,7.0715 -2.3799,3.8508 22.6256,28.1861 43.1771,42.0198 22.042,14.8369 170.2392,102.7736 173.2015,102.7736 0.8881,0 3.7117,1.8977 6.2747,4.2172 5.0611,4.5802 9.9384,2.6161 5.2201,-2.1022 -4.088,-4.0879 1.8714,-17.2859 13.4614,-29.8125 12.8959,-13.938 52.4638,-32.1112 41.7146,-19.1592 -2.7017,3.2553 -2.52,4.6844 1.0496,8.254 6.499,6.499 39.6927,6.1313 47.0435,-0.5211 2.9403,-2.661 5.346,-5.5742 5.346,-6.474 0,-2.8711 -16.5193,-7.7299 -26.847,-7.8966 -9.2766,-0.1496 -9.5318,-0.3418 -3.6292,-2.7327 3.4921,-1.4145 10.0635,-1.9854 14.6032,-1.2686 4.5397,0.7168 8.2524,0.518 8.2505,-0.4418 -0.01,-3.0695 61.5315,-0.435 81.1563,3.4745 47.5378,9.47 69.8466,31.2481 61.2843,59.8265 -3.4583,11.5426 -15.604,20.816 -34.8891,26.638 -21.4015,6.4609 -57.0871,11.1523 -84.9122,11.1628 -52.3117,0.02 -125.0517,-16.2359 -105.8105,-23.6463 1.7461,-0.6724 0.8889,-1.2396 -1.9047,-1.2604 -2.7937,-0.02 -9.1024,-1.5659 -14.0194,-3.4335 -9.7265,-3.6942 -127.1311,-71.1941 -149.7901,-86.1193 -20.7298,-13.6544 -25.6007,-16.0007 -23.8735,-11.4997 0.775,2.0196 2.7492,4.1922 4.3873,4.8281 2.3734,0.9213 107.4432,76.9017 117.2739,84.8057 1.4024,1.1275 8.831,6.7024 16.508,12.3888 30.8769,22.8706 46.54,33.9608 49.2271,34.8553 1.8343,0.6106 2.8264,10.227 2.8264,27.3972 v 26.4563 l -647.82581,0.6398 c -356.3042,0.3519 -648.58988,-0.1242 -649.5238,-1.0582 z m 798.9369,-81.486 c -81.3651,-0.3719 -214.508,-0.3719 -295.873,0 -81.3651,0.3719 -14.7937,0.6762 147.9365,0.6762 162.73011,0 229.30161,-0.3043 147.9365,-0.6762 z m -432.3809,-8.837 c 0,-1.4866 -1.6138,-1.2397 -3.8096,0.5826 -2.0952,1.7389 -3.8095,3.5573 -3.8095,4.0408 0,0.4835 1.7143,0.2212 3.8095,-0.5827 2.0953,-0.804 3.8096,-2.6223 3.8096,-4.0407 z m 968.25391,3.8024 c -5.9365,-0.5347 -15.6508,-0.5347 -21.5873,0 -5.9365,0.5347 -1.0794,0.9722 10.7936,0.9722 11.873,0 16.7302,-0.4375 10.7937,-0.9722 z m 27.9365,-2.3621 c -1.746,-0.7045 -4.6032,-0.7045 -6.3492,0 -1.746,0.7046 -0.3175,1.281 3.1746,1.281 3.4921,0 4.9206,-0.5764 3.1746,-1.281 z m -429.8413,-8.4767 c 0,-1.3968 -1.2103,-2.5397 -2.6895,-2.5397 -1.4793,0 -1.9833,1.1429 -1.12,2.5397 0.8633,1.3968 2.0736,2.5397 2.6896,2.5397 0.616,0 1.1199,-1.1429 1.1199,-2.5397 z m 460.9344,0.029 c 0.8898,-1.4397 -0.1298,-1.8654 -2.3898,-0.9981 -4.3998,1.6883 -5.2048,3.5087 -1.5516,3.5087 1.3144,0 3.088,-1.1298 3.9414,-2.5106 z M 322.56301,1060.2562 c -0.84394,-0.8439 -3.03441,-0.9341 -4.86773,-0.2004 -2.02599,0.8107 -1.42421,1.4125 1.5344,1.5344 2.67723,0.1102 4.17724,-0.49 3.33333,-1.3339 z m 22.85714,0 c -0.84394,-0.8439 -3.03441,-0.9341 -4.86773,-0.2004 -2.02598,0.8107 -1.42421,1.4125 1.5344,1.5344 2.67723,0.1102 4.17724,-0.49 3.33333,-1.3339 z m 1023.49205,0 c -0.8439,-0.8439 -3.0344,-0.9341 -4.8678,-0.2004 -2.0259,0.8107 -1.4242,1.4125 1.5344,1.5344 2.6773,0.1102 4.1773,-0.49 3.3334,-1.3339 z m 20.3174,0 c -0.8439,-0.8439 -3.0344,-0.9341 -4.8677,-0.2004 -2.026,0.8107 -1.4242,1.4125 1.5344,1.5344 2.6772,0.1102 4.1772,-0.49 3.3333,-1.3339 z M 369.60004,1042.3307 c -1.74604,-0.7045 -4.60318,-0.7045 -6.34921,0 -1.74603,0.7045 -0.31746,1.281 3.1746,1.281 3.49207,0 4.92064,-0.5765 3.17461,-1.281 z m 21.61695,-0.063 c -2.4282,-0.6356 -6.99963,-0.6587 -10.15877,-0.051 -3.15914,0.6075 -1.17247,1.1276 4.41483,1.1558 5.58734,0.028 8.17204,-0.4689 5.74394,-1.1045 z m 57.1898,-0.111 c -5.8943,-0.5326 -16.18,-0.5389 -22.8571,-0.015 -6.6771,0.5249 -1.8544,0.9607 10.717,0.9684 12.5714,0.01 18.0345,-0.4217 12.1401,-0.9543 z m 667.85991,-0.049 c -117.68261,-0.3651 -310.25401,-0.3651 -427.93651,0 -117.6825,0.3652 -21.3968,0.664 213.9682,0.664 235.36511,0 331.65081,-0.2988 213.96831,-0.664 z m 237.4074,0.3702 c -0.8439,-0.8439 -3.0344,-0.9341 -4.8677,-0.2004 -2.026,0.8107 -1.4243,1.4125 1.5344,1.5344 2.6772,0.1102 4.1772,-0.49 3.3333,-1.3339 z m -13.2804,-18.7831 c -0.8633,-1.3968 -2.9308,-2.5222 -4.5944,-2.5008 -1.8174,0.023 -1.5042,1.0216 0.7848,2.5008 4.8791,3.1531 5.7583,3.1531 3.8096,0 z m -931.42861,-6.9461 c -6.6349,-0.5232 -17.492,-0.5232 -24.12696,0 -6.63492,0.5232 -1.20635,0.9512 12.06346,0.9512 13.2699,0 18.6985,-0.428 12.0635,-0.9512 z m 697.34411,-0.038 c -124.55591,-0.3643 -329.12741,-0.3644 -454.60311,-10e-5 -125.4758,0.3642 -23.5664,0.6623 226.4653,0.6624 250.03181,0 352.69381,-0.2981 228.13781,-0.6623 z m -722.79381,-12.3283 c -0.84394,-0.8439 -3.03441,-0.9341 -4.86773,-0.2004 -2.02599,0.8107 -1.42421,1.4125 1.5344,1.5344 2.67723,0.1102 4.17724,-0.49 3.33333,-1.3339 z m 937.14281,0 c -0.8439,-0.8439 -3.0344,-0.9341 -4.8677,-0.2004 -2.026,0.8107 -1.4242,1.4125 1.5344,1.5344 2.6772,0.1102 4.1772,-0.49 3.3333,-1.3339 z M 433.12699,991.4306 c -3.1236,-0.6028 -8.8379,-0.6184 -12.6984,-0.034 -3.8604,0.5837 -1.3047,1.077 5.6794,1.096 6.9841,0.018 10.1427,-0.4585 7.019,-1.0613 z m 41.8699,-0.062 c -5.2381,-0.5479 -13.8095,-0.5479 -19.0476,0 -5.2381,0.5479 -0.9524,0.9962 9.5238,0.9962 10.4762,0 14.7619,-0.4483 9.5238,-0.9962 z m 622.22221,-0.054 c -111.39691,-0.3661 -293.68261,-0.3661 -405.07941,0 -111.3968,0.366 -20.2539,0.6655 202.5397,0.6655 222.79361,0 313.93651,-0.2995 202.53971,-0.6655 z m 380.9614,-562.54008 0.6439,-347.301593 H 828.65669 178.48893 V 429.41445 777.3558 l 649.52376,-0.6398 649.52381,-0.6398 z m -1289.53284,0 V 90.361817 l 639.36503,0.62517 639.36511,0.62517 0.5106,337.787533 0.5105,337.78751 H 828.52329 188.64766 Z m 1269.84124,0.63502 V 101.79049 H 828.64759 198.80639 V 429.40954 757.0286 h 629.8412 629.84131 z M 246.13302,693.3522 c -4.90372,-3.85727 -6.69171,-7.58951 -6.69171,-13.96825 0,-7.93481 0.65884,-8.70456 7.45036,-8.70456 6.23972,0 7.58093,1.13488 8.25397,6.98413 0.90989,7.90786 5.47322,8.51756 6.67406,0.89168 0.43509,-2.76307 -1.5262,-7.09407 -4.35843,-9.62441 -2.83223,-2.53033 -8.04536,-7.21234 -11.58474,-10.40449 -4.72495,-4.26139 -6.43522,-8.35094 -6.43522,-15.38761 0,-12.92861 4.52013,-18.24127 16.93712,-19.90674 8.38999,-1.12534 11.45239,-0.35353 15.78389,3.97798 2.95584,2.95583 5.37423,8.23136 5.37423,11.72343 0,5.36155 -1.1852,6.3492 -7.61905,6.3492 -5.92592,0 -7.61905,-1.12873 -7.61905,-5.07936 0,-2.79365 -1.14286,-5.07937 -2.53968,-5.07937 -5.64846,0 -2.36168,12.22687 4.44444,16.53336 11.34814,7.18037 15.75561,14.376 15.81654,25.822 0.0452,8.47451 -1.29004,11.66847 -6.63523,15.87301 -3.68043,2.89504 -9.81201,5.2637 -13.62575,5.2637 -3.81374,0 -9.94532,-2.36866 -13.62575,-5.2637 z m 46.93648,-2.06049 c -4.57041,-4.57042 -5.37422,-8.39155 -5.37422,-25.54769 0,-17.96761 0.61716,-20.60574 5.64447,-24.12698 3.10443,-2.17443 9.39014,-3.95352 13.96825,-3.95352 11.60165,0 18.48251,7.56398 18.48251,20.31746 v 10.15873 h -10.15873 c -10.11812,0 -10.1571,0.0381 -9.75228,9.52381 0.40016,9.37676 0.42225,9.39637 1.43076,1.26984 0.93227,-7.51231 1.80856,-8.25397 9.75228,-8.25397 7.87266,0 8.72797,0.69907 8.72797,7.13364 0,10.50291 -5.22224,15.88536 -16.93711,17.45666 -8.39,1.12533 -11.4524,0.35352 -15.7839,-3.97798 z m 14.08553,-41.5647 c -0.70453,-1.74603 -1.28099,-0.31746 -1.28099,3.1746 0,3.49207 0.57646,4.92064 1.28099,3.1746 0.70454,-1.74603 0.70454,-4.60317 0,-6.3492 z m 26.25453,17.14286 v -29.20635 h 8.88889 c 5.22047,0 8.88889,1.25775 8.88889,3.04762 0,2.37036 0.67726,2.37036 3.04762,0 1.67619,-1.6762 7.24094,-3.04762 12.36612,-3.04762 8.79505,0 9.40691,0.53495 10.89267,9.52381 0.8658,5.23809 1.72198,14.66666 1.90263,20.95238 0.30088,10.46974 0.49107,10.78936 2.26715,3.80952 1.06628,-4.19048 2.07393,-13.61905 2.23921,-20.95238 l 0.30047,-13.33333 h 18.96948 18.9695 l -0.5568,28.57143 -0.5568,28.57142 h -8.8889 -8.8889 l -0.085,-25.90468 c -0.047,-14.24757 -0.7196,-26.53976 -1.4958,-27.31596 -0.7763,-0.77623 -2.7334,9.34626 -4.3492,22.4944 -3.9366,32.03342 -3.9168,31.99609 -16.99745,31.99609 -12.09425,0 -11.62593,0.80416 -15.16041,-26.03175 -1.24104,-9.42273 -2.60718,-12.06349 -6.24086,-12.06349 -6.10357,0 -7.73516,4.86511 -7.73516,23.06486 v 15.03038 h -8.88889 -8.88889 z m 99.23193,22.51464 c -7.2392,-9.2032 -7.5653,-38.13128 -0.5213,-46.25303 10.2125,-11.77516 33.3529,-3.99855 33.3529,11.20866 0,5.61214 -0.9706,6.40622 -6.9842,5.71428 -5.0006,-0.57539 -7.2146,-2.42643 -7.7956,-6.51789 -1.8044,-12.70481 -5.5377,-4.57206 -5.5377,12.06349 0,14.04676 0.7932,17.77778 3.7796,17.77778 2.4057,0 3.5597,-2.07715 3.1746,-5.71428 -0.4796,-4.53011 0.8423,-5.88082 6.3791,-6.5179 6.1873,-0.71192 6.9842,0.0302 6.9842,6.50525 0,17.25417 -22.2376,25.20165 -32.8316,11.73364 z m 40.4506,-22.51464 v -29.20635 h 8.8889 8.8889 v 29.20635 29.20635 h -8.8889 -8.8889 z m 29.6,24.56193 c -6.3301,-6.99462 -6.003,-43.73319 0.4413,-49.56513 5.8549,-5.2987 20.4112,-5.42936 27.8063,-0.24966 5.0273,3.52125 5.6445,6.15937 5.6445,24.12699 0,16.78723 -0.8526,21.02606 -5.0794,25.25283 -6.6398,6.63982 -22.9742,6.8864 -28.8127,0.43494 z m 15.4375,-34.01862 c -0.5365,-5.97343 -0.983,-1.71792 -0.9923,9.45669 -0.01,11.1746 0.4298,16.06194 0.9755,10.86077 0.5457,-5.20117 0.5533,-14.34402 0.018,-20.31746 z m 31.153,33.58367 c -7.358,-7.35802 -6.7014,-15.23809 1.2698,-15.23809 4.6561,0 6.3492,1.35448 6.3492,5.07936 0,2.79365 1.1429,5.07937 2.5397,5.07937 5.4932,0 2.0871,-8.94279 -6.3492,-16.67015 -15.5204,-14.21613 -10.6325,-31.58382 8.8889,-31.58382 11.1899,0 17.7778,5.18494 17.7778,13.99182 0,4.58611 -1.295,5.91241 -5.4661,5.59822 -3.0064,-0.22654 -5.9968,-2.44117 -6.6454,-4.92152 -1.603,-6.1297 -5.6663,-5.72125 -5.6663,0.56957 0,2.79365 0.976,5.07937 2.1688,5.07937 1.1929,0 5.1929,2.80256 8.8889,6.22793 8.7805,8.1375 9.3201,22.13915 1.0756,27.91378 -7.7782,5.44805 -18.7555,4.95038 -24.8317,-1.12584 z m 60.9524,-24.12698 c 0,-27.51322 -0.2945,-29.20635 -5.0794,-29.20635 -3.7249,0 -5.0794,-1.69313 -5.0794,-6.34921 0,-6.24338 0.3387,-6.34921 20.3175,-6.34921 19.9788,0 20.3175,0.10591 20.3175,6.34921 0,5.07936 -1.2699,6.34921 -6.3492,6.34921 h -6.3493 v 29.20635 29.20635 h -8.8888 -8.8889 z m 41.7893,22.97257 c -5.3093,-5.30928 -6.2282,-8.60485 -6.1963,-22.22222 0.053,-22.81598 3.5566,-28.49971 18.1511,-29.4493 10.2173,-0.66479 12.4213,0.13105 17.206,6.21397 3.5378,4.49765 5.2181,9.73155 4.7291,14.73069 -0.701,7.16561 -1.578,7.81356 -11.5522,8.53524 -10.4947,0.75931 -10.7937,1.02725 -10.7937,9.67367 0,5.28181 1.0313,8.25542 2.5397,7.32315 1.3968,-0.86328 2.5397,-4.43172 2.5397,-7.92985 0,-5.64577 0.9272,-6.27083 8.2539,-5.56439 10.8842,1.04944 12.4654,9.5137 3.4596,18.51951 -8.4188,8.41877 -20.0183,8.48818 -28.3369,0.16965 z m 16.6234,-35.52109 c 0,-2.0128 -1.1429,-4.36597 -2.5397,-5.22926 -1.3968,-0.86329 -2.5397,0.78354 -2.5397,3.65963 0,2.87609 1.1429,5.22926 2.5397,5.22926 1.3968,0 2.5397,-1.64683 2.5397,-3.65963 z m 28.1208,35.06316 c -7.968,-10.12965 -7.5909,-38.49057 0.6143,-46.19894 11.687,-10.97935 32.2172,-3.97869 32.2172,10.98588 0,5.03091 -1.2816,6.34921 -6.1725,6.34921 -4.393,0 -6.4066,-1.59012 -6.9842,-5.51535 -0.4463,-3.03345 -2.2924,-6.00328 -4.1024,-6.59962 -2.5382,-0.83627 -3.1191,3.18446 -2.5397,17.57884 0.4364,10.84183 1.8156,18.38332 3.2909,17.99546 1.3968,-0.36722 2.5556,-3.22436 2.5749,-6.34921 0.027,-4.2912 1.7358,-5.8782 6.9842,-6.48516 6.1484,-0.71106 6.9488,0.0383 6.9488,6.50525 0,17.25417 -22.2376,25.20165 -32.8315,11.73364 z m 40.4506,-22.42126 v -29.11297 l 17.1428,0.22908 c 9.4286,0.12597 18.5714,1.36676 20.3175,2.75729 2.1733,1.73079 3.1746,10.84083 3.1746,28.88388 v 26.35569 h -8.8889 -8.8889 v -24.12699 c 0,-14.39154 -1.0248,-24.12698 -2.5397,-24.12698 -1.5149,0 -2.5397,9.73544 -2.5397,24.12698 v 24.12699 h -8.8888 -8.8889 z m 48.2539,-0.0935 v -29.20631 h 8.8889 8.8889 v 29.20635 29.20635 h -8.8889 -8.8889 z m 30.4762,24.12698 c -4.2161,-4.21607 -5.0793,-8.4656 -5.0793,-25.0032 0,-23.07962 3.4153,-28.33005 18.4283,-28.33005 16.2748,0 26.7633,20.61663 11.3912,22.3909 -5.9902,0.69141 -6.9624,-0.10646 -6.9624,-5.71428 0,-3.58484 -1.1429,-6.51789 -2.5397,-6.51789 -1.4512,0 -2.5397,7.61904 -2.5397,17.77777 0,10.15874 1.0885,17.77778 2.5397,17.77778 1.3968,0 2.5397,-2.85714 2.5397,-6.3492 0,-5.10037 1.2645,-6.34921 6.4289,-6.34921 8.2941,0 10.173,5.23401 5.2774,14.7011 -6.1602,11.91241 -20.4634,14.63701 -29.4841,5.61636 z m 43.359,-1.61234 c -4.0459,-5.14339 -5.2637,-10.35251 -5.2637,-22.51456 0,-20.49799 5.9682,-29.20635 20.0163,-29.20635 15.7631,0 19.0834,4.31855 20.1915,26.26227 0.8986,17.79637 0.5091,19.60091 -5.5369,25.64686 -9.0106,9.01066 -22.2381,8.92604 -29.4072,-0.18819 z m 17.5934,-22.51456 c 0,-11.00529 -1.0723,-19.04762 -2.5397,-19.04762 -2.8069,0 -3.5896,33.65902 -0.8465,36.40211 3.1227,3.12276 3.3862,1.77236 3.3862,-17.35449 z m 31.1111,26.10669 c -3.9426,-1.90149 -5.7143,-4.99779 -5.7143,-9.98685 0,-5.96472 1.0809,-7.23095 6.1726,-7.23095 4.4119,0 6.4577,1.62996 7.1722,5.71428 0.9061,5.17984 1.1925,5.28061 3.0618,1.07764 1.5907,-3.57664 -0.049,-6.37684 -7.1722,-12.24838 -7.6062,-6.26967 -9.2344,-9.28076 -9.2344,-17.07764 0,-12.1679 3.6247,-15.56114 16.6223,-15.56114 11.5579,0 20.0169,6.48759 18.521,14.20475 -1.2016,6.19865 -12.2861,6.74801 -12.2861,0.60891 0,-2.5602 -1.1429,-4.65493 -2.5397,-4.65493 -5.3856,0 -2.1506,8.32708 6.3492,16.34344 10.2441,9.66141 11.5788,19.06189 3.8095,26.83116 -5.5194,5.51942 -15.7297,6.33575 -24.7619,1.97971 z m 52.6984,-32.4559 v -35.55556 h 8.8889 8.8889 v 35.55556 35.55556 h -8.8889 -8.8889 z m 25.3968,6.52323 v -29.03236 l 19.20531,0.0754 c 18.0485,0.0708 19.3488,0.4527 21.5873,6.34054 1.3101,3.44584 2.382,16.5455 2.382,29.1103 v 22.84513 l -9.1883,-0.78821 -9.1883,-0.78824 -0.3355,-22.6396 c -0.2311,-15.59962 -1.3226,-22.97046 -3.5101,-23.70369 -2.3928,-0.80209 -3.1746,4.92919 -3.1746,23.27451 v 24.33862 h -8.88891 -8.8889 v -29.03233 z m 47.70131,0.4609 c -1.3987,-35.85296 1.2487,-43.22548 15.0998,-42.04971 10.6529,0.90428 13.7126,5.69608 5.2393,8.20524 l -5.8181,1.72287 5.7143,2.32817 c 6.6612,2.71398 7.2232,5.69694 1.9047,10.11089 -2.8627,2.37587 -3.8095,8.76505 -3.8095,25.70778 v 22.54619 h -8.608 -8.6079 z m 34.0475,23.39311 c -4.7291,-4.40576 -5.5583,-7.92083 -5.5583,-23.56188 0,-23.07662 3.8582,-29.6725 17.3567,-29.6725 5.1973,0 11.9897,1.77909 15.0941,3.95352 5.0699,3.55109 5.6445,6.12178 5.6445,25.25283 0,19.13104 -0.5746,21.70174 -5.6445,25.25282 -7.8705,5.51269 -20.2667,4.94814 -26.8925,-1.22479 z m 14.9851,-24.64899 c -0.8653,-23.86745 -2.7656,-23.44078 -2.7656,0.62096 0,10.94179 0.762,19.13221 1.6933,18.20091 0.9313,-0.9313 1.4138,-9.40114 1.0723,-18.82187 z m 25.1709,0.62096 v -29.20635 h 8.8889 c 5.2205,0 8.8889,1.25775 8.8889,3.04762 0,2.37036 0.6772,2.37036 3.0476,0 5.1854,-5.18543 7.1111,-3.42517 7.1111,6.50019 0,6.79733 -1.4632,10.46163 -5.0794,12.71995 -4.2319,2.64289 -5.0793,5.92259 -5.0793,19.65851 v 16.48643 h -8.8889 -8.8889 z m 33.0159,0.0935 v -29.11297 l 17.1428,0.22908 c 9.4286,0.12597 18.4697,1.28231 20.0914,2.56963 1.8341,1.45597 3.5705,1.33412 4.5943,-0.32244 0.9052,-1.46466 4.93,-2.66301 8.9439,-2.66301 5.3355,0 7.7877,1.53658 9.1192,5.71428 1.4672,4.60348 2.1943,33.41931 1.2536,49.68473 -0.1274,2.2062 -2.9874,3.06606 -8.4468,2.53968 l -8.254,-0.79594 -0.7302,-23.49206 c -0.9664,-31.0896 -5.619,-30.56389 -5.619,0.63492 v 24.12699 h -7.619 -7.6191 v -24.12699 c 0,-14.39154 -1.0248,-24.12698 -2.5397,-24.12698 -1.5149,0 -2.5396,9.73544 -2.5396,24.12698 v 24.12699 h -8.8889 -8.8889 v -29.11297 z m 72.0498,24.60952 c -2.2926,-2.29267 -3.4487,-7.32183 -2.978,-12.9553 0.6743,-8.06926 2.1042,-9.82791 11.5631,-14.22156 8.068,-3.74758 10.7936,-6.47322 10.7936,-10.79365 0,-3.17908 -1.1428,-5.78009 -2.5396,-5.78009 -1.3969,0 -2.5397,2.85714 -2.5397,6.3492 0,5.56313 -1.1005,6.34921 -8.8889,6.34921 -7.5568,0 -8.8889,-0.86682 -8.8889,-5.7841 0,-11.13529 6.7918,-17.07304 19.5287,-17.07304 17.8832,0 21.1062,5.28068 21.1062,34.58092 v 23.64501 l -16.7045,-0.28465 c -11.0188,-0.18768 -17.9801,-1.56018 -20.452,-4.03203 z m 19.3787,-13.27441 c 0,-4.19048 -1.1428,-7.61905 -2.5396,-7.61905 -1.3969,0 -2.5397,3.42857 -2.5397,7.61905 0,4.19047 1.1428,7.61905 2.5397,7.61905 1.3968,0 2.5396,-3.42858 2.5396,-7.61905 z m 28.2038,15.45699 c -2.4791,-1.56973 -3.6918,-8.42471 -4.0403,-22.83736 -0.2739,-11.32688 -1.2513,-21.34766 -2.172,-22.26837 -2.6198,-2.61989 -1.9606,-10.98618 0.8657,-10.98618 1.3968,0 2.5397,-1.71429 2.5397,-3.80953 0,-5.71451 13.277,-4.78148 18.4832,1.29887 5.0576,5.90687 5.6836,11.80953 1.4038,13.23614 -4.2772,1.42575 -4.4739,37.52109 -0.2044,37.52534 1.746,0.002 3.1746,2.28886 3.1746,5.08251 0,4.04541 -1.6802,5.07144 -8.254,5.04048 -4.5397,-0.0203 -9.848,-1.04825 -11.7962,-2.2819 z m 25.1296,-26.88556 v -29.20635 h 8.8889 8.8889 v 29.20635 29.20635 h -8.8889 -8.8889 z m 29.6,24.56193 c -6.3301,-6.99462 -6.003,-43.73319 0.4412,-49.56513 9.1057,-8.24059 29.7742,-2.58903 31.0682,8.49526 0.945,8.09412 -0.3773,10.15873 -6.5062,10.15873 -5.0794,0 -6.3493,-1.26984 -6.3493,-6.34921 0,-3.49206 -1.1428,-6.3492 -2.5396,-6.3492 -1.4692,0 -2.5397,8.09229 -2.5397,19.19751 0,12.15162 0.9321,18.62141 2.5397,17.62788 1.3968,-0.86328 2.5396,-4.35931 2.5396,-7.76894 0,-4.91949 1.3108,-6.19931 6.3493,-6.19931 5.3615,0 6.3492,1.18519 6.3492,7.61905 0,4.23281 -2.2575,9.87654 -5.0794,12.69841 -6.4852,6.48521 -20.5864,6.71865 -26.273,0.43495 z m 44.4935,-1.23355 c -4.4996,-4.78956 -5.5152,-8.90443 -5.4847,-22.22223 0.049,-21.26049 3.8255,-28.7924 14.9751,-29.86471 19.7281,-1.89732 25.6224,4.95934 25.6224,29.80539 0,19.40444 -6.2365,28.15952 -20.0591,28.15952 -6.6796,0 -11.184,-1.75881 -15.0537,-5.87797 z m 17.335,-24.74812 c 0,-10.05879 -1.0904,-17.62788 -2.5396,-17.62788 -1.4692,0 -2.5397,8.09229 -2.5397,19.19751 0,12.15162 0.9321,18.62141 2.5397,17.62788 1.3968,-0.86328 2.5396,-9.50217 2.5396,-19.19751 z m 31.4913,28.68244 c -4.4544,-2.9743 -9.1461,-13.3763 -7.7152,-17.10529 1.883,-4.90713 11.0512,-1.78825 12.6436,4.30118 0.7335,2.80505 2.4517,4.40914 3.8181,3.56462 4.2243,-2.61074 1.8687,-7.8911 -7.0918,-15.89737 -6.2712,-5.60328 -8.5957,-9.81146 -8.5957,-15.56135 0,-11.1329 4.8217,-15.77084 16.3956,-15.77084 10.8003,0 20.9001,7.50402 19.5277,14.5088 -1.0217,5.21531 -12.2196,7.17005 -12.2196,2.13308 0,-4.65669 -4.2403,-7.35574 -6.3058,-4.01377 -0.8675,1.40376 3.0535,7.09143 8.7135,12.63929 11.6093,11.3795 13.2206,20.05674 5.2114,28.06593 -5.0799,5.0799 -18.823,6.84739 -24.3818,3.13572 z M 401.98099,628.92795 c 0,-2.94367 2.6671,-3.96285 10.3704,-3.96285 13.2323,0 12.3549,6.00524 -1.0429,7.13745 -7.0951,0.59957 -9.3275,-0.16025 -9.3275,-3.1746 z m 71.1111,-0.15332 c 0,-2.66063 2.6808,-3.80953 8.8889,-3.80953 6.2081,0 8.8889,1.1489 8.8889,3.80953 0,2.66062 -2.6808,3.80952 -8.8889,3.80952 -6.2081,0 -8.8889,-1.1489 -8.8889,-3.80952 z m 312.3809,0 c 0,-2.66063 2.6808,-3.80953 8.8889,-3.80953 6.2081,0 8.8889,1.1489 8.8889,3.80953 0,2.66062 -2.6808,3.80952 -8.8889,3.80952 -6.2081,0 -8.8889,-1.1489 -8.8889,-3.80952 z m 500.31751,0 c 0,-2.66063 2.6808,-3.80953 8.8889,-3.80953 6.2081,0 8.8889,1.1489 8.8889,3.80953 0,2.66062 -2.6808,3.80952 -8.8889,3.80952 -6.2081,0 -8.8889,-1.1489 -8.8889,-3.80952 z M 600.07619,348.1397 V 117.02858 h 303.0751 303.07511 l 1.6868,168.03803 c 0.9277,92.4209 1.6868,196.4209 1.6868,231.11111 v 63.0731 H 904.83809 600.07619 Z m 34.9658,123.80953 -0.68,-61.58731 h -10.1588 -10.1587 l -0.6801,61.58731 -0.6801,61.5873 h 11.5189 11.5189 z m 170.1473,-24.12699 -0.6687,-85.71429 h -11.1571 -11.1572 l 0.5164,23.49207 0.5164,23.49206 -56.6608,0.29296 c -31.1634,0.16101 -58.3751,0.44683 -60.4703,0.63492 -3.2516,0.29188 -3.9091,9.36165 -4.4896,61.92927 l -0.6801,61.5873 h 72.4599 72.4598 z m -120.1714,57.06479 c -0.7103,-1.85082 -0.9698,-18.16185 -0.5768,-36.24673 l 0.7145,-32.88155 48.959,-0.69001 48.9589,-0.69 -0.705,36.24556 -0.705,36.24556 -47.6771,0.69118 c -37.7304,0.54697 -47.9466,-0.0102 -48.9685,-2.67401 z m 290.9313,15.91213 v -12.73735 l -72.7726,0.67386 -72.7725,0.67388 0.1963,10.79365 c 0.1079,5.9365 0.2842,11.36508 0.3916,12.06349 0.1074,0.69841 32.7668,1.26984 72.5763,1.26984 h 72.381 v -12.73737 z m 48.25401,-73.61184 v -86.34921 h -11.4286 -11.4286 v 86.34921 86.34921 h 11.4286 11.4286 z m 172.1332,50.15873 -0.7047,-36.19047 -73.0158,-0.67388 -73.0159,-0.67386 v 36.86433 36.86436 h 73.7205 73.7205 z m -121.3396,-1.96081 V 482.6308 l 47.6191,0.69095 47.619,0.69097 0.7741,12.06349 0.7741,12.06349 h -48.3932 -48.3931 z m -99.04761,-24.07093 v -11.42858 h -72.3809 c -62.5044,0 -72.4243,0.51983 -72.6984,3.80953 -0.1748,2.09524 -0.5345,6.38095 -0.7997,9.52381 -0.2652,3.14286 -0.055,6.57143 0.4673,7.61905 0.5223,1.04762 33.4536,1.90476 73.1807,1.90476 h 72.231 z m -0.4958,-48.88889 -0.774,-12.0635 -69.7194,-0.5201 c -46.8157,-0.34925 -70.8023,0.37864 -73.0159,2.21572 -1.813,1.50471 -3.2965,7.16734 -3.2965,12.5836 v 9.84777 h 73.79 73.7899 z m 220.95241,0 -0.7741,-12.0635 h -72.3809 -72.381 l -0.774,12.0635 -0.7741,12.06349 h 73.9291 73.9291 z M 757.53649,280.76797 c 0,-17.19325 0.6937,-33.06822 1.5416,-35.27769 1.3839,-3.60651 -6.0167,-4.01725 -72.3809,-4.01725 h -73.9225 v 35.51195 35.51195 l 64.1269,0.67853 c 35.2699,0.37318 67.8413,0.26778 72.381,-0.23416 l 8.2539,-0.91276 v -31.26047 z m -120.8719,5.44754 c -0.7649,-1.99322 -1.0245,-7.44711 -0.5768,-12.11975 l 0.8138,-8.49574 49.0303,-0.69026 49.0303,-0.69026 -0.7763,12.11883 -0.7763,12.11883 -47.6772,0.69117 c -39.4095,0.57133 -47.9183,0.0627 -49.0678,-2.93282 z m 339.2846,-34.87982 v -60.65631 h -11.4286 -11.4285 v 60.77575 60.77574 l 5.7143,0.85981 c 3.1428,0.47289 8.2857,0.41915 11.4285,-0.11936 l 5.7143,-0.97923 v -60.65633 z m -169.5798,13.62941 0.6909,-47.61905 47.6191,-0.69097 47.619,-0.69095 v 48.30999 48.31002 h 12.6984 12.6985 v -60.95238 -60.95238 h -72.381 -72.381 v 60.95238 60.95238 h 11.3726 11.3725 z m 339.73851,36.19047 V 289.727 h -73.6508 -73.65071 v 11.42857 11.42857 h 73.65071 73.6508 z m 48.254,-73.65079 v -85.07937 h -11.4286 -11.4285 v 85.07937 85.07936 h 11.4285 11.4286 z m -48.254,25.39682 v -11.42857 h -73.6508 -73.65071 v 9.73544 c 0,5.35452 0.7619,10.49737 1.69311,11.42857 0.9312,0.93123 34.074,1.69314 73.6508,1.69314 h 71.9576 z M 759.07809,212.05896 c -0.8479,-2.20947 -1.5416,-7.92376 -1.5416,-12.69841 v -8.68117 h -72.3809 -72.3809 v 12.69841 12.69842 h 73.9225 c 66.3642,0 73.7648,-0.41075 72.3809,-4.01725 z m 387.02981,-8.68117 v -12.69841 h -73.6508 -73.65071 v 11.00528 c 0,6.05293 0.7619,11.76722 1.69311,12.69842 0.9312,0.93122 34.074,1.69313 73.6508,1.69313 h 71.9576 z M 473.71389,475.75875 c -15.6669,-31.77778 -28.7873,-59.38578 -29.1567,-61.35114 -0.4834,-2.57249 2.3568,-3.67827 10.1406,-3.94804 5.9466,-0.20596 11.7781,0.25908 12.9589,1.03368 1.1808,0.7746 11.0682,19.69407 21.972,42.04328 10.9038,22.3492 21.0019,42.15428 22.4401,44.0113 1.9621,2.53328 8.3617,-7.93049 25.6287,-41.90476 l 23.0137,-45.28115 10.1587,-0.16 c 5.5873,-0.0879 11.3016,0.20877 12.6984,0.65948 1.3968,0.45067 -11.0264,28.23693 -27.6071,61.74723 l -30.1468,60.9279 h -11.8077 -11.8077 z m -26.6535,-162.70837 -6.9842,-0.80361 v -60.78369 -60.7837 h 60.9524 60.9524 V 166.5524 142.42541 h 12.6984 12.6984 v 84.9984 84.9984 l -66.6666,0.71589 c -36.6667,0.39373 -69.8096,0.35426 -73.6508,-0.0876 z m 114.9206,-60.14878 v -36.82539 h -48.254 -48.2539 v 36.82539 36.8254 h 48.2539 48.254 z"
       id="path236" />
  </g>
</svg>
